# xmcd CD database file
#
# Track frame offsets:
#	187
#	14212
#	30032
#	34865
#	49520
#	60370
#	76127
#	97480
#	123790
#	137827
#	151240
#	179727
#
# Disc length: 2713 seconds
#
# Revision: 1
# Processed by: cddbd v1.5.1PL2 Copyright (c) Steve Scherf et al.
# Submitted via: CDex 1.51
#
DISCID=960a970c
DTITLE=Lee Konitz - The Lee Konitz Duets
DYEAR=1967
DGENRE=Jazz
TTITLE0=Struttin' With Some Barbecue With Marshall Brown
TTITLE1=You Don't Know What Love Is With Joe Henderson
TTITLE2=VariationsOn Alone Together-I) Konitz Solo
TTITLE3=VariationsOn Alone Together-II) With Elvin Jones
TTITLE4=VariationsOn Alone Together-III) With Karl Berger
TTITLE5=VariationsOn Alone Together-IV) With Eddie Gomez
TTITLE6=VariationsOn Alone Together-V) Quartet
TTITLE7=Checkerboard With Dick Katz
TTITLE8=ERB With Jim Hall
TTITLE9=Tickle Toe
TTITLE10=Duplexity With Ray Nance
TTITLE11=Alphanumeric Ensemble
EXTD=YEAR: 1967
EXTT0=
EXTT1=
EXTT2=
EXTT3=
EXTT4=
EXTT5=
EXTT6=
EXTT7=
EXTT8=
EXTT9=
EXTT10=
EXTT11=
PLAYORDER=
